<svg width="40" height="41" viewBox="0 0 40 41" fill="none" xmlns="http://www.w3.org/2000/svg">
<rect y="0.399902" width="40" height="40" rx="20" fill="#EA7600"/>
<path d="M20.3986 28.8792H12.5986V17.6102L18.5986 11.6792L24.5986 17.6102V19.3895" stroke="white" stroke-width="1.99634" stroke-miterlimit="10" stroke-linecap="round" stroke-linejoin="round"/>
<path d="M18.6006 20.8403C19.7052 20.8403 20.6006 19.9449 20.6006 18.8403C20.6006 17.7358 19.7052 16.8403 18.6006 16.8403C17.496 16.8403 16.6006 17.7358 16.6006 18.8403C16.6006 19.9449 17.496 20.8403 18.6006 20.8403Z" stroke="white" stroke-width="1.99634" stroke-miterlimit="10" stroke-linecap="round" stroke-linejoin="round"/>
<path d="M28.3007 22.6996C27.3882 21.7553 25.8663 21.9096 25.1501 23.0265C24.4332 21.9084 22.9107 21.7565 21.9995 22.6996C21.2007 23.5265 21.2007 24.8665 21.9995 25.6934L25.1495 28.9546L28.3007 25.6934C29.1001 24.8665 29.1001 23.5265 28.3007 22.6996Z" stroke="white" stroke-width="1.99634" stroke-miterlimit="10" stroke-linecap="round" stroke-linejoin="round"/>
</svg>
