<svg width="40" height="41" viewBox="0 0 40 41" fill="none" xmlns="http://www.w3.org/2000/svg">
<rect y="0.399902" width="40" height="40" rx="20" fill="#EA7600"/>
<path d="M18.4325 21.6802C15.9954 21.7577 14.3643 22.4047 13.4606 22.9004C12.9341 23.1887 12.5986 23.834 12.5986 24.5459V27.6802H18.9186" stroke="white" stroke-width="2.00479" stroke-miterlimit="10" stroke-linecap="round" stroke-linejoin="round"/>
<path d="M17 17.9995C18.1046 19.1041 19.8954 19.1041 21 17.9995C22.1046 16.8949 22.1046 15.1041 21 13.9995C19.8954 12.8949 18.1046 12.8949 17 13.9995C15.8954 15.1041 15.8954 16.8949 17 17.9995Z" stroke="white" stroke-width="2"/>
<path d="M24.5996 19.6802L25.8359 22.3136L28.5996 22.7361L26.5996 24.786L27.0716 27.6802L24.5996 26.3136L22.1276 27.6802L22.5996 24.786L20.5996 22.7361L23.3633 22.3136L24.5996 19.6802Z" stroke="white" stroke-width="2" stroke-miterlimit="10" stroke-linecap="round" stroke-linejoin="round"/>
</svg>
