<svg data-v-6d4ee73a="" class="state na" width="1801" height="1654" viewBox="0 0 1801 1654" fill="none" xmlns="http://www.w3.org/2000/svg"><path d="M1471.58 1150.86C1470.13 1154.32 1469.16 1157.26 1467.71 1159.96C1463.52 1167.74 1459.88 1168.96 1467.71 1174.6C1469.5 1175.89 1471.58 1178.6 1470 1183.6C1465.48 1188.11 1460.74 1187.1 1455 1188.6C1422.79 1197.05 1392.77 1201.8 1360.06 1209.6C1356.87 1191 1356 1190.33 1352.01 1172.07C1350.98 1165.89 1352.21 1162.95 1360.06 1161.18C1388.33 1154.84 1416.24 1147.04 1444.16 1139.24C1451.19 1137.27 1456.46 1137.84 1461.55 1143.13C1464.29 1145.99 1467.88 1148.04 1471.58 1150.83V1150.86Z" fill="#C3E9F2"></path><path d="M504.934 334.306C510.647 344.48 516.684 354.479 521.948 364.877C525.49 371.884 530.006 374.452 537.639 371.759C540.458 370.762 544.076 370.063 546.77 370.936C559.243 375.025 569.696 371.086 580.199 364.628C583.691 362.483 588.631 362.658 595.267 361.261C591.3 372.308 588.531 379.988 585.463 388.54C600.555 391.682 598.161 374.876 608.838 371.958C610.36 379.239 611.881 386.396 613.653 394.774C628.222 389.263 621.261 376.347 625.677 365.425C628.621 368.393 631.689 370.213 632.862 372.881C636.678 381.658 639.547 390.859 643.314 399.636C644.412 402.18 647.805 405.97 649.352 405.621C651.996 405.047 654.94 402.03 656.137 399.337C661.576 387.169 662.998 387.094 672.677 396.644C685.699 409.486 698.647 422.577 712.941 433.897C722.221 441.253 733.872 445.542 744.399 451.352C749.888 454.394 755.251 457.685 761.488 461.351C757.646 464.767 755.501 466.687 753.405 468.582C759.193 477.982 774.236 484.515 784.838 482.421C786.36 482.122 787.807 481.473 789.329 481.174C815.648 476.087 816.321 475.913 823.356 501.471C827.447 516.333 837.177 523.689 850.623 527.678C872.526 534.186 894.555 540.37 916.558 546.504C931.9 550.768 932.748 551.716 932.773 567.175C932.773 576.227 933.048 585.253 932.823 594.305C932.624 601.611 934.869 605.176 943.076 604.603C971.341 602.583 999.631 601.037 1027.95 599.392C1033.53 599.067 1039.35 598.17 1044.71 599.242C1048.2 599.94 1051.1 603.73 1054.26 606.149C1052.17 608.742 1050.17 611.435 1047.9 613.879C1047.13 614.727 1045.76 615.225 1044.59 615.475C1030.94 618.442 1026.52 627.917 1026.25 640.684C1026.17 643.901 1025.65 647.94 1023.68 650.159C1011.61 663.924 1007.61 679.907 1009.26 697.711C1009.46 699.83 1009.29 701.999 1009.29 704.717C1006.92 705.017 1004.87 705.465 1002.82 705.49C968.223 705.864 933.621 706.089 899.02 706.612C892.259 706.712 890.189 704.742 890.239 697.511C890.488 662.303 890.014 627.069 889.74 591.836C889.59 572.462 883.004 565.604 864.194 561.341C841.617 556.204 819.315 549.895 797.012 543.686C781.82 539.448 771.891 527.803 762.236 516.482C749.937 502.045 738.612 486.834 726.687 472.073C724.641 469.529 721.698 467.709 719.153 465.54C718.305 466.188 717.482 466.836 716.633 467.51C718.08 470.976 718.804 474.99 721.074 477.808C737.564 498.379 753.879 519.1 771.217 538.949C782.319 551.666 799.058 554.708 814.4 559.296C831.289 564.333 848.503 568.223 865.616 572.511C878.314 575.703 880.285 577.848 880.36 590.963C880.485 617.469 880.41 643.951 880.41 670.457C880.41 681.627 880.41 692.823 880.41 705.341C875.071 705.341 868.335 705.665 861.65 705.291C787.058 701.077 713.49 690.355 641.593 669.758C623.182 664.497 605.295 657.415 587.034 651.655C582.145 650.109 580.523 647.716 580.997 643.003C582.918 623.803 574.76 611.51 556.799 603.805C541.157 597.097 540.234 592.534 545.298 576.052C547.743 568.073 549.714 559.969 552.158 551.99C555.002 542.714 552.233 535.533 544.525 530.022C543.252 529.124 541.855 528.401 540.633 527.454C528.609 517.904 528.609 517.679 535.02 503.616C537.19 498.828 539.336 493.991 540.932 489.004C543.252 481.773 542.753 474.94 536.791 469.23C531.802 464.443 529.407 459.206 532.151 451.851C534.521 445.542 534.721 438.435 536.841 432.002C539.934 422.726 537.764 415.844 529.856 410.159C523.045 405.272 516.884 399.487 509.948 394.799C504.211 390.909 500.244 387.244 504.086 379.763C504.959 378.068 504.21 375.574 504.21 373.455C503.337 372.856 502.489 372.258 501.616 371.684C499.047 374.602 495.629 377.145 494.082 380.536C491.787 385.598 490.415 391.109 496.277 395.572C504.934 402.155 513.216 409.211 521.823 415.844C526.912 419.759 530.08 423.599 527.286 430.73C525.041 436.416 524.742 442.824 522.896 448.684C519.628 459.082 520.551 467.984 529.332 475.664C531.278 477.359 532.176 482.047 531.378 484.715C528.983 492.694 525.765 500.474 522.422 508.129C519.453 514.936 520.052 520.721 525.565 525.908C528.983 529.099 531.727 533.313 535.669 535.558C544.774 540.769 544.525 547.851 541.681 556.279C538.937 564.457 536.342 572.711 534.147 581.064C530.829 593.607 532.8 599.142 543.178 606.523C547.718 609.74 552.458 613.131 557.622 614.976C569.422 619.19 572.44 627.842 571.667 639.063C571.492 641.532 571.642 644.025 571.642 648.165C543.776 636.844 516.31 626.521 489.542 614.577C452.82 598.17 416.697 580.441 380.175 563.56C375.435 561.365 369.921 560.842 363.36 559.196C409.188 484.466 455.29 409.286 501.367 334.107C502.564 334.182 503.761 334.281 504.959 334.356L504.934 334.306Z" fill="#C3E9F2"></path><path d="M442.567 412.727C434.809 404.898 428.447 398.14 421.712 391.807C413.903 384.451 404.623 382.98 394.17 385.149C379.626 388.166 365.007 391.557 350.239 392.655C341.358 393.328 331.578 391.433 323.221 388.116C299.247 378.616 274.949 373.08 248.929 374.302C219.043 375.724 189.107 375.649 159.195 376.447C156.002 376.522 152.834 378.217 149.666 379.14C149.815 380.112 149.965 381.085 150.115 382.057C157.15 382.656 164.185 383.703 171.22 383.753C203.027 383.927 234.809 383.977 266.617 383.753C282.408 383.628 297.925 385.822 311.621 393.403C332.626 405.022 353.981 402.604 375.834 398.215C382.495 396.869 389.405 396.569 395.966 394.924C410.186 391.308 418.967 398.016 426.127 409.211C428.896 413.525 432.838 417.091 436.804 421.604C407.741 469.155 378.329 517.205 348.268 566.402C343.453 559.819 339.985 553.461 335.046 548.599C322.647 536.38 310.448 523.639 296.503 513.39C283.556 503.865 275.149 493.143 274.051 477.01C273.901 474.891 273.327 472.621 272.28 470.801C271.182 468.881 269.286 466.113 267.764 466.113C266.043 466.113 263.972 468.557 262.7 470.402C261.303 472.397 260.505 474.841 259.681 477.185C257.237 484.266 252.746 487.433 244.888 486.909C234.335 486.211 223.658 487.034 213.131 486.061C209.089 485.687 202.478 482.571 202.104 480.002C201.555 476.087 204.424 470.352 207.692 467.609C212.507 463.57 219.018 461.525 224.731 458.508C229.446 456.015 234.485 453.646 232.065 444.844C212.133 452.798 187.036 448.409 174.538 472.297C167.727 485.313 156.227 488.979 142.681 489.228C114.091 489.752 85.5022 490.475 56.8881 490.874C50.4269 490.949 45.3627 488.904 45.662 480.576C45.9614 472.597 50.5267 469.604 57.3871 468.906C61.7029 468.482 66.0935 469.006 70.4343 468.906C82.2342 468.682 94.059 468.831 105.809 467.984C115.838 467.26 127.687 451.501 126.265 441.627C126.041 440.156 124.619 438.585 123.322 437.613C121.376 436.116 119.056 435.069 116.885 433.897C98.5744 424.148 95.2814 414.572 103.813 395.921C109.701 383.055 108.828 380.536 95.7304 374.876C89.8679 372.332 83.706 370.188 84.8287 362.034C85.8764 354.304 91.6142 352.833 98.2501 351.736C100.396 351.387 102.142 347.697 103.713 345.278C104.287 344.405 103.838 342.834 103.713 341.612C101.743 321.49 101.793 321.664 122.074 316.353C132.253 313.685 142.331 310.593 152.235 307.102C163.91 303.013 174.712 304.16 185.09 310.768C190.579 314.259 196.167 317.65 201.855 320.767C211.808 326.252 218.519 326.078 226.228 318.024C234.959 308.922 242.468 298.674 250.501 288.925C249.827 287.703 249.154 286.481 248.505 285.234C245.711 286.082 242.069 286.082 240.248 287.902C234.086 294.011 228.573 300.744 224.307 305.581C212.033 294.535 200.458 283.663 188.358 273.415C180.65 266.882 176.808 259.526 180.475 249.702C183.918 240.451 187.286 231.075 191.826 222.348C196.067 214.194 203.077 211.9 212.382 215.191C228.847 221.026 233.936 225.091 233.762 241.224C233.587 258.554 245.412 265.71 257.237 272.692C265.394 277.504 275.024 279.773 284.055 283.214C287.173 275.859 283.93 272.368 278.466 270.024C276.77 269.301 274.999 268.752 273.228 268.203C255.715 262.693 255.79 262.593 255.366 244.764C254.917 226.387 253.969 208.035 253.594 189.683C253.395 179.684 257.012 175.919 266.866 176.392C301.667 178.038 336.493 179.459 371.194 182.402C377.755 182.95 383.942 189.857 389.854 194.371C391.85 195.917 393.048 199.058 393.696 201.702C402.253 236.96 426.402 261.695 450.625 286.406C463.049 299.098 475.547 311.74 487.521 324.806C489.368 326.826 490.291 332.012 489.018 334.232C474 360.264 458.483 385.997 442.517 412.777L442.567 412.727Z" fill="#C3E9F2"></path><path d="M401.854 583.582C472.753 619.414 544.7 649.984 621.137 672.675C619.44 680.23 618.218 687.412 616.222 694.369C603.649 738.728 590.602 782.963 578.602 827.497C577.155 832.833 579.575 840.414 582.619 845.525C594.518 865.498 607.516 884.823 619.74 904.597C622.035 908.312 622.634 913.075 624.081 917.338C626.725 925.093 630.642 932.674 631.789 940.628C633.136 949.904 632.113 959.529 632.113 971.173C579.525 956.886 529.208 943.221 478.74 929.532C477.792 924.644 476.944 920.106 476.021 915.593C474.324 907.439 471.056 900.856 462.774 896.817C458.034 894.498 454.192 889.81 450.675 885.571C442.367 875.547 434.285 865.324 426.601 854.801C425.054 852.682 424.53 848.393 425.603 846.074C435.008 825.577 434.933 824.655 418.119 810.99C409.063 803.659 409.413 799.395 416.522 790.095C422.46 782.34 427.549 773.637 431.266 764.611C436.081 752.891 433.062 744.588 422.585 737.282C417.67 733.841 416.298 730.001 416.048 724.216C414.152 678.286 411.583 632.38 401.43 587.322C401.23 586.499 401.604 585.527 401.854 583.557V583.582Z" fill="#C3E9F2"></path><path d="M1030.12 996.383C1014.7 1003.64 998.383 1001.15 982.393 1001.25C961.188 1001.37 939.983 1000.7 918.778 1001.07C910.77 1001.22 908.849 997.929 908.325 990.723C904.309 936.763 899.394 882.854 895.877 828.869C893.507 792.514 892.883 756.034 891.536 719.628C891.486 718.456 891.81 717.26 892.035 715.514H1009.43C1010.36 721.249 1011.28 726.959 1012.3 733.467C1015.9 733.467 1019.96 734.54 1023.06 733.268C1031.36 729.827 1034.66 734.789 1037.28 740.773C1043.26 754.363 1048.95 768.102 1054.71 781.817C1058.58 791.018 1061.65 793.112 1070.11 787.602C1086.94 776.63 1100.82 780.046 1114.69 794.758C1107.7 803.236 1100.37 812.287 1092.91 821.239C1071.48 847.072 1049.9 872.805 1028.67 898.812C1026.1 901.954 1023.85 906.617 1024 910.482C1025.1 937.836 1026.82 965.189 1028.44 992.518C1028.52 993.865 1029.54 995.161 1030.12 996.383Z" fill="#C3E9F2"></path><path d="M1135.57 287.852C1129.85 290.196 1124.02 292.265 1118.5 294.983C1116.11 296.155 1113.51 298.3 1112.52 300.644C1111.09 303.96 1111.07 307.85 1110.44 311.515C1113.69 310.293 1117.75 309.919 1120.05 307.7C1128.81 299.322 1144.45 297.651 1152.88 306.079C1158.07 311.266 1162.61 311.54 1168.6 309.097C1172.31 307.576 1176.15 306.354 1180 305.207C1189.75 302.314 1196.24 307.8 1195.11 318.073C1194.54 323.285 1192.89 328.496 1193.14 333.633C1193.27 335.927 1196.91 338.046 1198.96 340.24C1200.65 338.495 1202.37 336.799 1204 334.979C1204.34 334.58 1204.05 333.708 1204.3 333.184C1207.01 327.698 1205.27 318.522 1216.22 319.993C1228.32 321.639 1235.48 327.623 1235.75 338.221C1235.95 346.025 1238.7 349.94 1247.08 348.469C1253.17 347.397 1259.38 346.948 1265.49 345.901C1280.18 343.382 1288.94 349.117 1291.86 363.43C1295.75 382.456 1299.22 385.971 1318.38 387.493C1333.22 388.664 1348.16 388.59 1363.03 389.612C1367.82 389.936 1372.89 391.158 1377.13 393.327C1383.21 396.469 1386.58 400.957 1384.14 409.161C1379.87 423.549 1377.05 438.36 1373.24 454.568C1364.35 449.381 1356.55 444.544 1348.49 440.205C1342.5 436.989 1336.24 434.221 1329.93 431.702C1323.07 428.96 1320.17 431.952 1319.95 439.058C1319.52 452.224 1321.52 455.815 1334.04 460.777C1345.52 465.315 1357.97 468.108 1368.45 474.267C1377.98 479.877 1386.01 488.48 1393.47 496.858C1395.89 499.576 1396.31 507.43 1394.17 509.974C1391.52 513.091 1384.86 514.886 1380.57 514.038C1370.94 512.118 1361.73 508.104 1352.28 505.186C1349.01 504.164 1345.52 503.865 1341.68 503.166C1340.93 513.365 1346.02 517.679 1353.25 520.297C1365.15 524.586 1377.1 528.675 1388.98 533.014C1391.87 534.061 1394.94 535.333 1397.11 537.352C1398.86 538.973 1400.3 542.04 1400.05 544.284C1399.88 545.781 1396.66 547.875 1394.61 548.1C1368.27 551.067 1341.83 553.436 1316.56 542.813C1311.27 540.594 1306.3 535.906 1302.89 531.119C1289.84 512.891 1273.3 510.647 1256.21 524.985C1250.85 529.498 1244.73 533.587 1238.27 536.205C1230.04 539.572 1222.26 535.233 1219.06 527.079C1218.94 526.78 1218.91 526.481 1218.81 526.182C1210.38 503.466 1210.31 503.241 1232.81 496.284C1242.31 493.342 1247.25 488.455 1247.4 477.783C1247.53 468.581 1250.57 459.455 1251.42 450.204C1252.29 440.729 1253.07 431.029 1252.02 421.629C1251.07 413.151 1245.06 407.116 1236.73 404.374C1213.8 396.818 1190.9 389.213 1167.82 382.181C1158.69 379.414 1148.36 379.289 1149.06 365.425C1149.14 363.854 1144.05 362.009 1139.56 359.141C1139.18 367.046 1138.93 372.157 1138.71 376.845C1115.01 380.935 1091.93 385.597 1068.66 388.615C1060.38 389.687 1051.37 387.542 1043.14 385.323C1040.12 384.5 1038.32 379.164 1035.95 375.898C1039.22 374.177 1042.44 372.357 1045.78 370.811C1046.83 370.337 1048.48 371.01 1049.45 370.437C1051.82 369.041 1053.94 367.245 1056.19 365.6C1054.01 363.729 1052.14 361.036 1049.65 360.214C1045.31 358.792 1040.19 359.366 1036.08 357.545C1031.89 355.675 1026.95 352.683 1025.1 348.868C1018.64 335.428 1016.57 320.592 1019.49 306.179C1022.86 289.647 1034.36 276.855 1058.16 281.967C1057.38 286.081 1056.98 290.37 1055.74 294.36C1049.97 312.687 1057.18 327.798 1067.56 341.986C1068.71 343.557 1073.2 344.754 1074.17 343.881C1075.82 342.41 1077.14 338.719 1076.39 336.799C1074.75 332.536 1071.95 328.646 1069.28 324.856C1061.02 313.161 1063 301.367 1069.13 289.797C1075.29 278.202 1085.1 271.519 1098.45 271.669C1106.13 271.769 1114.14 272.043 1121.32 274.362C1127.13 276.232 1131.95 281.269 1137.21 284.909L1135.54 287.852H1135.57Z" fill="#C3E9F2"></path><path d="M899.17 1001.49C865.167 999.001 832.612 996.707 800.056 994.164C785.188 992.992 770.394 990.947 755.501 990.049C747.493 989.576 744.873 986.907 745.722 978.654C749.738 939.705 753.081 900.682 756.898 861.708C760.34 826.45 764.282 791.267 767.675 756.008C769.197 740.249 769.895 724.416 771.018 707.958C808.014 710.651 844.436 713.32 879.661 715.863C886.123 810.417 892.584 904.946 899.17 1001.49Z" fill="#C3E9F2"></path><path d="M811.357 466.986C822.458 461.949 831.265 457.386 840.52 454.119C843.389 453.097 848.428 454.593 850.948 456.737C865.666 469.155 879.562 483.019 899.17 487.208C913.988 490.35 929.081 492.37 944.149 493.915C948.066 494.314 954.427 492.145 955.949 489.228C957.596 486.086 954.851 480.675 953.779 474.815C960.988 467.409 967.974 467.983 974.784 478.406C975.981 480.226 976.705 482.77 978.376 483.767C980.746 485.188 983.964 486.385 986.459 485.886C987.657 485.637 989.453 480.5 988.58 478.93C979.973 463.644 991.124 451.127 994.392 437.737C996.363 429.658 998.409 422.975 988.804 416.293C985.91 423.698 983.241 430.555 980.073 438.659C977.853 435.916 976.031 433.996 974.584 431.827C969.82 424.621 966.302 416.193 960.265 410.333C950.436 400.783 954.752 390.036 955.799 379.812C957.172 366.323 960.39 353.032 962.46 339.592C962.859 337.024 961.911 334.131 961.188 331.513C958.868 323.185 955.899 315.031 953.978 306.603C950.261 290.395 956.772 283.588 973.113 285.882C975.258 286.181 977.603 285.882 979.574 286.63C985.237 288.749 994.392 290.121 995.565 293.861C998.234 302.389 998.758 313.41 989.902 319.519C963.333 337.822 970.917 343.781 985.686 364.926C991.424 373.155 996.987 381.982 1000.11 391.382C1002.38 398.215 1000.55 406.418 1000.55 414.971C1005.89 416.392 1011.78 417.814 1017.59 419.534C1031.41 423.623 1033.86 428.062 1031.36 442.05C1030.24 448.384 1030.19 454.917 1029.67 461.3C1033.48 461.649 1037.73 456.43 1042.44 445.641C1058.86 446.913 1065.52 453.969 1065.64 469.878C1065.69 474.89 1066.29 479.902 1066.61 484.914C1067.69 485.138 1068.76 485.388 1069.86 485.612C1072.03 481.672 1074.2 477.733 1076.84 472.995C1078.89 474.092 1080.88 475.414 1083.05 476.261C1085.42 477.184 1087.97 477.633 1090.41 478.306C1090.41 475.164 1091.14 471.798 1090.26 468.931C1089.32 465.789 1086.4 463.295 1085.17 460.178C1081.93 451.8 1081.28 443.372 1086 435.069C1090.99 426.292 1092.01 417.789 1084.8 409.261C1082.63 406.717 1082.38 402.553 1080.33 396.344C1095.7 395.247 1109.45 393.178 1123.04 393.901C1127.46 394.15 1131.45 401.755 1135.64 405.994C1135.02 406.842 1134.39 407.715 1133.77 408.563C1128.56 409.036 1123.34 409.485 1118.15 409.959C1117.8 410.732 1117.48 411.53 1117.13 412.303C1119.63 414.622 1121.72 417.863 1124.64 419.085C1134.97 423.324 1137.49 430.73 1136.94 441.302C1136.19 455.416 1134.24 470.227 1145.75 481.647C1137.79 495.312 1127.78 504.638 1110.87 503.59C1103.68 503.141 1099.62 508.104 1097.42 514.437C1095.53 519.923 1093.98 525.533 1092.16 531.418C1083.95 529.797 1076.12 528.176 1068.26 526.73C1065.54 526.231 1062.6 525.583 1059.98 526.132C1058.03 526.531 1056.46 528.75 1054.74 530.171C1056.14 531.842 1057.26 534.585 1058.95 535.009C1068.21 537.328 1077.62 539.073 1088.12 541.267C1087.42 548.623 1087.19 556.004 1085.7 563.135C1085.32 564.906 1080.93 566.601 1078.24 566.95C1066.96 568.347 1058.58 573.483 1053.12 583.657C1051.82 586.051 1049.03 589.143 1046.73 589.267C1012.6 591.387 978.451 593.082 943.6 594.928C943.101 583.408 942.528 572.91 942.203 562.387C941.754 548.449 938.112 543.287 924.117 539.123C902.812 532.739 881.582 525.882 859.954 520.895C843.289 517.03 834.208 508.178 831.514 491.372C829.793 480.675 825.377 471.025 811.382 466.936L811.357 466.986Z" fill="#C3E9F2"></path><path d="M849.775 1007.3C847.405 1044.93 845.085 1081.74 842.69 1119.89C822.259 1118.02 802.251 1116.57 782.319 1114.3C755.226 1111.21 728.209 1107.24 701.117 1104.28C697.574 1103.88 693.633 1107.14 689.89 1108.72C690.19 1109.54 690.464 1110.36 690.764 1111.18C680.885 1110.64 670.981 1110.41 661.177 1109.29C658.807 1109.01 655.913 1106.15 654.765 1103.75C652.77 1099.64 651.547 1095.03 650.774 1090.49C649.501 1083.08 646.508 1077.87 638.375 1076.4C633.461 1075.53 630.891 1072.53 632.438 1066.9C633.66 1062.46 635.182 1057.7 634.733 1053.26C634.159 1047.47 633.361 1040.62 629.968 1036.4C615.798 1018.87 615.224 999.799 621.087 977.631C696.227 992.468 771.841 1003.36 849.775 1007.23V1007.3Z" fill="#C3E9F2"></path><path d="M853.641 1358.27C851.646 1401.25 849.6 1444.92 847.579 1488.38C834.807 1488.38 823.356 1488.5 811.88 1488.35C795.989 1488.15 780.123 1487.65 764.232 1487.55C761.987 1487.55 759.766 1489.23 757.471 1489.9C753.904 1490.95 750.261 1492.64 746.694 1492.54C739.909 1492.37 733.148 1491.02 726.337 1490.37C720.625 1489.85 716.558 1491.42 714.089 1497.63C712.916 1500.62 708.226 1502.24 705.133 1504.49C703.985 1503.64 702.862 1502.81 701.715 1501.97C708.026 1449.95 714.338 1397.94 720.575 1346.5C765.329 1350.44 808.288 1354.25 853.617 1358.24L853.641 1358.27Z" fill="#C3E9F2"></path><path d="M793.096 340.216C797.611 337.398 801.029 335.254 805.42 332.536C807.016 335.578 808.338 338.57 810.11 341.288C810.958 342.585 812.604 343.358 813.902 344.38C814.825 342.959 816.371 341.612 816.571 340.091C817.145 335.478 817.219 330.79 817.469 326.152C818.941 325.928 820.413 325.704 821.91 325.454C826.325 340.739 830.716 356 835.131 371.285C836.653 370.986 838.175 370.686 839.672 370.387C838.749 359.989 837.925 349.591 836.903 339.193C836.528 335.503 835.73 331.838 835.106 328.172C832.013 309.77 838.599 302.065 857.758 301.541C867.138 301.292 872.327 306.304 868.785 314.632C857.035 342.26 869.808 368.143 873.5 394.599C874.049 398.564 878.888 402.429 882.53 405.346C886.048 408.189 890.688 409.585 894.655 411.929C906.704 418.961 907.203 423.399 899.619 435.069C894.979 442.2 891.935 450.379 887.046 460.428C880.385 457.461 872.277 455.266 865.891 450.678C853.966 442.15 842.89 439.482 828.944 446.614C818.068 452.199 805.844 455.516 793.869 458.458C788.78 459.705 782.069 458.807 777.354 456.413C764.656 449.93 752.557 442.3 740.433 434.77C732.55 429.882 729.207 417.165 734.196 409.261C735.743 406.817 740.832 404.947 743.901 405.421C758.519 407.665 772.989 410.782 787.508 413.6L789.678 411.455C787.333 408.962 785.387 404.922 782.618 404.224C765.854 400.11 748.99 396.12 731.951 393.377C721.149 391.632 714.987 384.201 719.328 374.003C720.625 370.936 724.941 367.919 728.334 367.27C734.047 366.173 740.134 366.797 746.046 366.996C752.308 367.22 754.777 364.827 752.382 357.596C746.819 357.596 740.982 357.67 735.144 357.596C719.877 357.396 711.395 344.43 719.802 331.638C730.28 315.655 745.772 305.107 764.906 301.292C772.54 299.771 775.558 304.484 773.438 312.089C772.515 315.405 773.014 319.096 772.864 322.637C775.907 321.539 778.951 320.467 781.994 319.345C784.215 318.547 787.208 316.428 788.431 317.201C790.402 318.422 791.649 321.39 792.347 323.883C792.996 326.202 792.422 328.845 792.522 331.314C792.622 333.708 792.871 336.077 793.196 340.166L793.096 340.216Z" fill="#C3E9F2"></path><path d="M504.385 1162.18C544.151 1171.78 583.467 1181.28 624.829 1191.25C614.701 1241.17 604.497 1291.59 594.269 1342.01C578.627 1338.77 576.831 1340.11 575.06 1355.47C574.586 1359.74 573.887 1363.98 572.989 1370.46C559.817 1351.06 547.618 1333.23 535.544 1315.33C519.254 1291.17 502.789 1267.1 487.122 1242.52C484.652 1238.63 484.627 1231.92 485.875 1227.13C491.463 1205.66 497.924 1184.44 504.36 1162.18H504.385Z" fill="#C3E9F2"></path><path d="M1511.62 628.989C1516.88 635.023 1521.79 639.736 1525.61 645.222C1538.68 664.023 1556.52 674.695 1579.25 676.091C1587.08 676.565 1595.06 674.246 1603 673.398C1605.67 673.099 1608.58 672.8 1611.1 673.523C1625.92 677.812 1640.77 682.001 1655.36 687.013C1665.19 690.379 1678.49 712.397 1677.41 722.595C1677.21 724.465 1675.09 726.734 1673.25 727.757C1625.57 753.714 1577.77 779.422 1530.18 805.504C1524.64 808.522 1520.7 807.948 1515.83 804.731C1507.05 798.922 1498.29 792.887 1488.89 788.224C1475.94 781.841 1477.19 770.67 1477.16 759.424C1477.16 750.148 1484.35 747.879 1490.61 744.762C1500.61 739.775 1510.94 735.487 1520.77 730.225C1535.02 722.595 1538.81 708.233 1529.45 694.892C1523.07 685.766 1515.06 677.787 1507.67 669.384C1497 657.265 1496.47 651.106 1505.35 637.492C1506.85 635.198 1508.62 633.053 1511.62 628.989Z" fill="#C3E9F2"></path><path d="M550.637 1164.87C501.741 1151.75 453.992 1139.01 406.294 1126.1C398.66 1124.03 393.596 1109.36 399.409 1103.55C420.938 1082.11 424.555 1052.26 436.904 1026.55C438.525 1023.19 437.403 1017.13 444.513 1018.2C456.562 1020.05 463.547 1024.56 462.948 1031.89C462.325 1039.22 465.618 1041.04 472.029 1042.66C483.654 1045.63 494.831 1050.42 506.431 1053.51C509.948 1054.46 514.314 1052.51 518.231 1051.56C522.497 1050.54 526.937 1047.57 530.829 1048.25C543.926 1050.52 556.848 1053.81 569.746 1057.1C578.502 1059.32 581.895 1067.32 576.856 1074.93C572.79 1081.09 567.052 1086.12 562.586 1092.03C558.495 1097.47 551.934 1102.96 560.99 1110.16C562.287 1111.18 561.04 1115.85 560.441 1118.71C557.372 1133.75 554.129 1148.76 550.712 1164.84L550.637 1164.87Z" fill="#C3E9F2"></path><path d="M831.539 1236.13C782.618 1230.07 735.069 1224.19 686.373 1218.18C691.263 1182.6 695.978 1148.46 700.767 1113.68C747.543 1118.96 793.645 1124.15 841.593 1129.56C838.35 1163.95 835.032 1198.93 831.539 1236.13Z" fill="#C3E9F2"></path><path d="M1002.08 106.15C1017.17 109.516 1024.08 101.038 1028.72 90.0415C1029.74 87.6228 1027.55 83.8576 1026.82 80.7158C1024.18 82.4114 1019.94 83.5833 1019.14 85.9023C1016.47 93.6821 1011.41 95.7267 1003.7 96.4748C990.75 97.7465 980.147 96.7989 973.237 83.334C969.819 76.6514 963.358 71.415 957.87 65.9293C953.928 61.9896 954.302 58.9973 958.643 56.2295C985.561 38.9745 1012.25 21.3204 1039.67 4.86324C1045.83 1.17284 1054.46 0.798817 1062.02 0.424791C1070.98 -0.0240411 1076.97 5.88558 1076.62 14.7874C1075.87 33.7381 1074.27 52.6389 1073 71.5646C1072.95 72.188 1073 72.961 1072.65 73.3849C1061.1 87.2987 1068.31 102.135 1069.96 116.922C1070.85 125.1 1070.58 133.902 1068.33 141.707C1067.09 146.046 1061.1 149.587 1056.56 152.304C1046.06 158.613 1045.61 168.487 1056.04 175.195C1058.9 177.04 1062.07 178.436 1064.82 180.406C1071.53 185.269 1070.78 193.273 1062.97 196.34C1058.78 197.986 1053.84 198.808 1049.38 198.459C1039.52 197.736 1031.09 200.554 1023.18 206.139C1020.16 208.259 1016.77 210.004 1013.33 211.376C1000.23 216.637 994.592 212.722 996.538 198.858C997.91 189.034 998.259 177.713 1012.33 175.968C1013.65 175.793 1015.92 171.48 1015.37 169.983C1013.9 166.069 1011.41 162.403 1008.79 159.062C1003.4 152.23 1002.2 146.021 1007.51 138.017C1010.08 134.152 1010.16 127.718 1009.31 122.781C1008.39 117.495 1005.04 112.658 1002.1 106.125L1002.08 106.15Z" fill="#C3E9F2"></path><path d="M602.152 973.418C610.435 972.944 612.031 976.784 610.609 982.768C605.645 1003.81 607.192 1023.26 622.434 1040.39C625.178 1043.49 625.178 1049.52 625.353 1054.23C625.478 1057.45 623.632 1060.74 622.808 1064.03C619.939 1075.4 621.361 1079.12 632.313 1083.58C637.752 1085.8 641.119 1088.62 641.693 1094.48C641.793 1095.38 642.317 1096.22 642.641 1097.1C647.83 1111.62 658.05 1118.91 673.301 1118.96C677.018 1118.96 680.91 1118.86 684.352 1119.96C686.423 1120.61 689.367 1123.7 689.192 1125.37C686.697 1147.44 683.729 1169.48 680.71 1192.65C639.398 1184.04 599.957 1175.82 559.792 1167.44C563.535 1148.94 566.952 1132.03 570.345 1115.1C570.769 1113 572.166 1109.96 571.268 1108.92C564.458 1100.84 570.894 1096.4 575.434 1091.14C579.251 1086.67 583.118 1082.13 586.012 1077.07C587.733 1074.08 589.23 1069.29 588.007 1066.55C582.245 1053.56 585.338 1041.04 588.456 1028.4C592.972 1010.12 597.537 991.895 602.127 973.418H602.152Z" fill="#C3E9F2"></path><path d="M1109.62 1158.21C1091.61 1158.21 1075.54 1158.21 1059.45 1158.21C1044.81 1158.21 1030.14 1157.74 1015.52 1158.41C1007.79 1158.76 1005.59 1155.72 1005.79 1148.84C1005.99 1141.98 1005.87 1135.12 1005.79 1128.29C1005.67 1119.54 1006.87 1111.21 1001.78 1102.43C998.109 1096.1 999.905 1086.67 999.082 1078.64C996.762 1056.43 994.317 1034.23 991.922 1012.02C1005.22 1010.4 1017.59 1008.9 1031.01 1007.28C1034.13 1010.3 1038.55 1015.63 1043.99 1019.57C1051.87 1025.31 1056.93 1018.3 1062.72 1012.99C1067.14 1017.15 1071.08 1020.94 1075.12 1024.66C1080.93 1030.02 1087.02 1032.01 1095.45 1030.19C1103.34 1028.5 1111.87 1029.82 1120.1 1029.82C1120.6 1030.84 1121.1 1031.84 1121.6 1032.86C1112.47 1041.19 1103.21 1049.37 1094.3 1057.92C1090.86 1061.21 1086.97 1064.9 1085.5 1069.17C1082.85 1076.8 1081.03 1084.25 1073.82 1089.46C1071.78 1090.94 1071.68 1096.15 1071.95 1099.54C1072.4 1105.17 1075.54 1111.06 1074.5 1116.25C1072.95 1124.05 1076.29 1127.74 1081.86 1131.43C1091.83 1138.06 1103.04 1143.45 1109.65 1158.24L1109.62 1158.21Z" fill="#C3E9F2"></path><path d="M1029.89 1272.51C1034.46 1280.74 1038 1287.08 1041.44 1293.46C1042.17 1294.78 1043.01 1296.28 1043.01 1297.67C1043.11 1314.41 1043.09 1331.14 1043.09 1349.14H883.703C885.274 1321.89 886.771 1295.7 888.318 1268.75C936.84 1270.05 984.937 1271.32 1029.92 1272.49L1029.89 1272.51Z" fill="#C3E9F2"></path><path d="M607.84 1320.46C616.696 1277.6 625.402 1235.34 634.284 1192.32C649.027 1194.92 663.247 1197.38 678.664 1200.1C678.115 1206.19 676.968 1212.3 677.317 1218.3C677.467 1220.82 680.435 1224.84 682.705 1225.31C696.302 1228.08 710.072 1230 725.315 1232.44C724.517 1241.12 723.943 1249.92 722.87 1258.65C719.951 1282.31 716.608 1305.95 713.964 1329.67C713.34 1335.3 710.945 1336.55 706.156 1335.8C673.475 1330.71 640.82 1325.63 607.865 1320.49L607.84 1320.46Z" fill="#C3E9F2"></path><path d="M888.119 1240.77C872.153 1239.2 857.409 1237.73 841.717 1236.18C843.189 1216.93 844.636 1198.23 846.108 1179.03C856.087 1179.03 865.093 1178.71 874.073 1179.08C897.997 1180.08 921.897 1181.3 945.821 1182.65C948.764 1182.82 952.631 1183.32 954.377 1185.24C960.739 1192.2 968.248 1191.97 976.655 1191.03C992.197 1189.28 995.191 1191.28 1000.78 1205.71C1005.99 1219.2 1011.16 1232.72 1015.67 1246.43C1017.24 1251.22 1016.82 1256.68 1017.24 1261.34H889.64C889.091 1253.64 888.642 1247.55 888.168 1240.77H888.119Z" fill="#C3E9F2"></path><path d="M996.388 1182.55C987.008 1182.55 978.451 1182.62 969.894 1182.47C968.173 1182.45 965.703 1182.07 964.88 1180.93C958.518 1172.27 949.413 1173.37 940.357 1173.07C909.622 1172.08 878.913 1170.65 847.056 1169.36C849.126 1144.1 851.122 1119.56 853.068 1095.62H988.255C1001.38 1123 995.49 1150.16 996.937 1176.69C997.036 1178.53 996.737 1180.4 996.513 1182.25C996.438 1182.8 995.939 1183.27 996.388 1182.52V1182.55Z" fill="#C3E9F2"></path><path d="M442.891 947.211C453.918 952.223 462.699 956.612 471.805 960.177C475.796 961.723 480.436 961.599 484.777 962.247C484.777 957.933 484.902 953.619 484.702 949.331C484.602 946.962 483.954 944.618 483.205 940.03C520.351 950.403 556.025 960.377 593.121 970.75C587.059 996.508 580.997 1022.24 574.71 1048.95C560.615 1045.68 546.994 1042.46 533.349 1039.42C525.889 1037.75 518.156 1034.81 512.668 1043.88C511.944 1045.08 507.753 1044.93 505.483 1044.26C498.972 1042.34 492.735 1039.45 486.199 1037.63C478.241 1035.43 470.008 1034.26 472.179 1022.56C472.428 1021.24 469.584 1018.68 467.688 1017.75C460.229 1014.11 452.546 1010.9 446.384 1008.15C445.261 988.379 444.163 969.004 442.916 947.236L442.891 947.211Z" fill="#C3E9F2"></path><path d="M1245.31 1513.56C1260.45 1510.99 1274.77 1508.55 1289.09 1506.21C1290.91 1505.91 1293.06 1505.63 1294.65 1506.33C1321.07 1517.68 1347.96 1505.36 1374.58 1507.55C1376.43 1507.7 1378.8 1501.62 1382.12 1496.66C1389.03 1494.66 1394.86 1498.6 1397.98 1507.65C1399.6 1512.31 1401.43 1516.9 1403.15 1521.54C1406.71 1531.09 1411.98 1539.07 1421.66 1543.76C1429.32 1547.47 1432.93 1553.66 1434.88 1562.51C1436.78 1571.19 1442.09 1579.39 1447.15 1587C1453.56 1596.57 1458.65 1605.5 1455.26 1617.97C1453.29 1625.22 1455.36 1633.5 1454.54 1641.18C1454.09 1645.39 1452.09 1652.13 1449.47 1652.82C1444.36 1654.2 1438.2 1652.62 1432.71 1651.23C1430.41 1650.65 1428.14 1647.69 1427.05 1645.29C1423.48 1637.54 1417.79 1633.8 1409.26 1633C1406.79 1632.78 1404.34 1629.34 1402.5 1626.92C1401.08 1625.05 1401.18 1621.03 1399.6 1620.38C1386.18 1614.8 1382.87 1600.64 1374.48 1590.89C1370.84 1586.67 1369.04 1578.97 1369.77 1573.31C1371.21 1562.19 1367.97 1553.91 1360.04 1546.7C1352.21 1539.59 1344.35 1532.49 1336.81 1525.08C1332.77 1521.09 1328.66 1520.17 1324.76 1524.23C1311.34 1538.32 1298.42 1539.74 1282.03 1527.35C1275.74 1522.61 1264.07 1524.58 1254.84 1524.36C1247.63 1524.16 1244.56 1521.39 1245.31 1513.59V1513.56Z" fill="#C3E9F2"></path><path d="M862.748 1369.59V1358.29C871.454 1358.29 879.986 1358.29 888.543 1358.29C938.037 1358.29 987.532 1358.42 1037.03 1358.29C1042.37 1358.29 1046.21 1359.11 1046.56 1365.27C1048.13 1391.53 1049.67 1417.79 1051.37 1446.24C1038.37 1438.48 1026.95 1441.13 1014.95 1444.12C1001.95 1447.36 989.079 1446.79 976.106 1440.4C966.177 1435.51 954.477 1433.99 943.426 1431.7C933.572 1429.66 929.605 1424.87 930.653 1414.44C931.751 1403.65 930.977 1392.68 931.127 1381.8C931.302 1369.96 931.077 1369.64 919.502 1369.61C900.891 1369.61 882.306 1369.61 862.748 1369.61V1369.59Z" fill="#C3E9F2"></path><path d="M1026.82 1251.24H1110.3C1108.85 1260.12 1112.72 1266.55 1120.95 1271.22C1123.94 1272.91 1125.39 1277.13 1127.93 1279.82C1132.27 1284.41 1136.91 1288.67 1141.9 1293.56C1137.84 1304.01 1139.46 1308.72 1150.73 1315.28C1157.42 1319.17 1162.46 1323.68 1163.61 1332.26C1164.06 1335.67 1168.62 1338.67 1171.52 1341.63C1176.28 1346.52 1178.4 1339.29 1180.97 1339.32C1186.11 1339.39 1191.22 1342.26 1196.34 1343.98C1196.24 1344.83 1196.16 1345.65 1196.06 1346.5C1194.22 1346.8 1192.37 1347.05 1190.55 1347.44C1183.64 1348.97 1175.46 1348.82 1170.19 1352.63C1165.25 1356.22 1163.38 1364.05 1160.16 1370.04C1159.69 1369.71 1158.97 1369.49 1158.77 1369.01C1151.68 1352.68 1151.66 1352.08 1133.75 1352.9C1112.32 1353.88 1090.96 1356.05 1069.56 1357.62C1064.94 1357.97 1060.3 1358.07 1054.12 1358.34C1053.54 1338.94 1052.79 1320.09 1052.57 1301.24C1052.49 1294.41 1051.37 1288.87 1046.01 1283.81C1043.56 1281.49 1043.46 1276.15 1043.29 1272.14C1043.04 1266.26 1039.85 1263.06 1034.71 1263.24C1026.12 1263.54 1025.85 1258.8 1026.77 1251.24H1026.82Z" fill="#C3E9F2"></path><path d="M858.357 1010.02H982.742C985.76 1036.5 988.604 1061.64 991.698 1088.77C945.346 1087.62 900.492 1086.52 854.19 1085.38C855.637 1059.32 856.985 1034.68 858.357 1010.02Z" fill="#C3E9F2"></path><path d="M1655.98 748.004C1657.95 779.847 1639.02 809.943 1611.18 820.79C1592.17 828.196 1572.99 835.227 1554.45 843.705C1546.89 847.171 1538.63 852.632 1534.49 859.464C1519.35 884.424 1502.49 908.811 1497.25 938.509C1496.45 943.072 1494.55 947.685 1494.88 952.148C1496.17 969.104 1484.65 979.253 1475.49 990.773C1470.56 996.972 1465.67 1003.2 1460.8 1009.44C1469.95 1000.29 1483.97 994.519 1492.26 984.788C1499.22 976.635 1504.53 968.381 1505.93 957.06C1509 932.2 1523.07 913 1540.7 896.119C1545.42 891.606 1550.61 887.541 1554.92 882.704C1564.68 871.733 1576.73 871.832 1589.03 875.872C1593.04 877.193 1598.53 881.881 1598.66 885.222C1598.81 889.362 1594.76 894.349 1591.3 897.715C1588.1 900.807 1582.94 901.779 1579.27 904.497C1575.78 907.091 1573.06 910.756 1570.02 913.923C1570.87 915.419 1571.74 916.915 1572.59 918.411H1572.64C1577.8 916.267 1582.94 914.097 1588.13 911.978C1590.32 911.08 1592.59 909.434 1594.74 909.559C1605.57 910.207 1614.75 922.426 1612.33 933.796H1656.63C1658.58 938.833 1655.88 942.798 1650.05 945.64C1633.23 953.894 1619.86 965.788 1609.66 981.721C1602.15 993.466 1582.57 990.773 1576.73 977.856C1571.69 966.71 1566.67 955.539 1561.26 944.593C1557.69 937.362 1551.73 933.048 1543.27 933.896L1543.15 933.909C1532.55 934.978 1520.56 936.187 1517.1 947.884C1513.96 958.532 1513.06 970.451 1514.14 981.522C1515.33 993.989 1511.57 1003.04 1504.46 1012.89C1496.25 1024.29 1479.9 1027.94 1472.95 1029.97C1466 1032 1442 1038.5 1436 1038.5C1409.85 1038.5 1411 1044.91 1394.5 1042.09C1378 1039.26 1371.29 1035.36 1364.16 1034.98C1347.19 1034.11 1342.9 1030.57 1340.61 1013.94C1336.99 987.83 1332.85 961.798 1329.38 935.691C1327.93 924.844 1321.65 917.788 1313.44 912.277C1313.31 911.18 1312.96 910.357 1313.24 910.033C1325.56 895.446 1322.59 881.482 1312.54 866.945C1304.98 855.998 1298.47 844.254 1292.06 832.559C1285.87 821.239 1286.25 818.521 1297.85 812.786C1322.39 800.642 1326.78 761.395 1312.27 744.439C1302.74 733.318 1290.01 724.915 1278.61 715.439C1276.49 713.669 1273.87 712.497 1271.4 711.175C1266.29 708.432 1265.44 704.468 1268.01 699.531C1269.43 696.763 1271 694.07 1272.43 691.302C1278.39 679.607 1278.31 668.686 1268.28 660.856C1247.03 644.249 1247.95 618.716 1240.04 596.798C1237.43 589.542 1245.03 590.39 1249.08 589.816C1264.12 587.672 1279.36 586.774 1294.2 583.782C1303.98 581.812 1311.27 582.46 1318.38 590.19C1326.34 598.818 1337.76 597.82 1348.21 597.347C1357.47 596.948 1362.11 600.738 1363.83 609.39C1364.6 613.33 1366.23 617.095 1366.77 621.06C1369.29 638.714 1380.2 648.414 1396.71 652.328C1408.04 655.021 1419.56 658.388 1431.01 658.487C1444.18 658.612 1450.47 649.461 1447.78 636.37C1444.91 622.431 1440.69 608.792 1437.45 594.928C1436.75 591.961 1437.62 588.619 1437.77 585.477C1440.94 585.727 1444.61 585.029 1447.18 586.375C1459.5 592.933 1472.08 599.267 1483.55 607.146C1497.62 616.796 1499.39 623.853 1492.56 639.262C1486.82 652.229 1487.74 662.602 1498.89 672.551C1506.7 679.508 1513.01 688.235 1519.5 696.563C1528.13 707.684 1526.06 716.462 1513.46 722.945C1503.81 727.932 1493.73 732.096 1484.17 737.257C1461.3 749.6 1460.53 780.42 1482.55 794.259C1492.78 800.692 1503.13 806.976 1513.26 813.584C1519.45 817.623 1525.34 818.72 1532.25 814.955C1560.81 799.346 1589.55 784.011 1618.21 768.551C1630.69 761.818 1643.16 755.036 1655.98 748.079V748.004Z" fill="#C3E9F2"></path><path d="M1273.1 1392.95C1288.52 1390.21 1302.79 1387.66 1315.23 1385.45C1327.63 1395.99 1338.98 1405.97 1350.68 1415.49C1358.57 1421.9 1366.77 1427.96 1375.18 1433.67C1384.49 1439.98 1393.84 1460.82 1392 1471.8C1391.17 1476.63 1390.97 1481.55 1390.37 1487.45C1386.98 1487.45 1383.96 1487.45 1380.94 1487.45C1375.56 1487.45 1370.07 1486.91 1370.04 1495.11C1370.04 1496.46 1366.2 1498.8 1364.01 1498.97C1347.57 1500.32 1331.1 1501.27 1314.64 1502.24C1309.07 1502.57 1306.13 1500.99 1304.61 1494.36C1302.24 1484.01 1298.67 1474.21 1303.03 1463.59C1303.73 1461.9 1303.08 1459.2 1302.24 1457.36C1294.23 1440.4 1285.95 1423.57 1277.94 1406.59C1275.99 1402.45 1274.84 1397.96 1273.1 1392.98V1392.95Z" fill="#C3E9F2"></path><path d="M1410.21 1225.76C1403.72 1236.23 1397.46 1246.41 1391.15 1256.56C1390.52 1257.58 1389.43 1259.22 1388.75 1259.15C1376.48 1257.35 1378 1268.23 1374.73 1274.48C1373.21 1277.45 1372.76 1280.97 1371.76 1284.21C1371.49 1285.08 1371.11 1286 1370.52 1286.7C1368.82 1288.75 1366.4 1292.66 1365.3 1292.34C1356.22 1289.64 1348.69 1309.04 1338.71 1293.81C1334.89 1287.95 1328.88 1283.54 1323.04 1277.65C1327.83 1275.46 1330.3 1274.33 1333.2 1273.01C1331.87 1259 1336.24 1248.4 1350.23 1242.47C1353.53 1241.07 1354.92 1235.16 1357.82 1230.27C1362 1219.1 1376.24 1211.14 1382.5 1224.6C1382.15 1224.18 1383.41 1226.98 1383.56 1227.48C1384.89 1231.2 1386.16 1234.96 1387.43 1238.7C1389.87 1235.91 1392.64 1233.34 1394.69 1230.27C1404.37 1215.78 1410.21 1223.6 1410.16 1225.79L1410.21 1225.76Z" fill="#C3E9F2"></path><path d="M1177.35 1119.54C1182.14 1113.58 1186.91 1107.59 1191.7 1101.63C1192.42 1101.91 1193.17 1102.18 1193.89 1102.48C1192.3 1109.61 1190.87 1116.79 1189.05 1123.88C1186.83 1132.5 1182.64 1140.96 1182.32 1149.61C1181.99 1158.19 1185.41 1166.94 1187.63 1177.86C1170.39 1178.81 1153.5 1180.25 1136.61 1180.43C1127.66 1180.53 1122.97 1172.87 1121.45 1164.02C1119.23 1151.13 1111.47 1141.11 1100.89 1133.4C1098.15 1131.41 1095.28 1129.51 1092.28 1127.87C1085.37 1124.08 1080.76 1119.39 1084.23 1110.74C1084.55 1109.94 1084.43 1108.86 1084.28 1107.97C1082.65 1098.62 1079.01 1088.74 1091.46 1083.36C1092.46 1082.93 1093.21 1080.54 1093.08 1079.14C1091.49 1062.71 1104.61 1064.06 1114.89 1060.44C1115.63 1080.74 1132.95 1076.9 1144.1 1081.21C1151.43 1084.03 1159.84 1084.1 1167.77 1085.33C1173.59 1086.22 1176.65 1089.12 1176.03 1095.35C1175.28 1102.91 1174.81 1110.46 1174.21 1118.02C1175.26 1118.51 1176.3 1119.01 1177.35 1119.51V1119.54Z" fill="#C3E9F2"></path><path d="M1008.06 1166.99H1108.62C1114.66 1173.92 1119.95 1179.91 1125.11 1185.99C1128.21 1189.65 1131.87 1193.15 1133.89 1197.38C1136.36 1202.57 1135.39 1207.73 1129.5 1210.77C1120.37 1215.51 1116.38 1222.27 1119.7 1232.87C1121.17 1237.6 1120.42 1242.02 1113.19 1242.04C1085.17 1242.14 1057.13 1242.62 1029.12 1242.92C1027.92 1242.92 1026.72 1242.52 1025.45 1242.32C1019.91 1217.41 999.281 1196.34 1008.09 1166.99H1008.06Z" fill="#C3E9F2"></path><path d="M1055.61 1367.39C1085.35 1365.47 1113.81 1363.5 1142.28 1362.11C1144.65 1361.98 1148.81 1365.5 1149.41 1367.99C1152.85 1382.35 1153.53 1396.44 1145.62 1410.16C1136.96 1425.19 1128.71 1440.78 1139.61 1459.03C1116.03 1461.07 1094.18 1462.94 1071.8 1464.89C1070.43 1458.31 1073.6 1449.05 1062.3 1448.88C1061.5 1448.88 1060.18 1445.99 1060.08 1444.39C1058.53 1419.31 1057.13 1394.2 1055.61 1367.37V1367.39Z" fill="#C3E9F2"></path><path d="M1294.9 1496.95C1278.59 1499.35 1263 1501.69 1247.38 1503.94C1233.78 1505.88 1233.18 1506.36 1234.96 1520.54C1235.58 1525.51 1235.55 1528.97 1229.47 1529.97C1224.48 1530.77 1221.06 1530.52 1220.24 1524.36C1218.49 1511.49 1215.82 1498.75 1214.52 1485.83C1211.8 1458.95 1209.71 1432 1207.24 1403.82C1226 1400.58 1244.39 1397.39 1263.15 1394.15C1269.53 1409.96 1274.4 1426.46 1282.63 1441.08C1291.24 1456.39 1293.03 1472.32 1293.88 1488.95C1293.98 1491.1 1294.43 1493.21 1294.9 1496.95Z" fill="#C3E9F2"></path><path d="M1687.07 732.943C1691.58 744.687 1695.5 755.684 1699.99 766.406C1704.81 777.851 1705.7 777.901 1714.93 769.972C1720.02 765.608 1720.7 765.932 1726.01 774.784C1731 770.994 1735.56 766.007 1741.23 763.588C1751.23 759.299 1755.37 761.593 1760.54 771.542C1762.63 775.607 1764.8 779.646 1766.92 783.661C1768.54 783.461 1769.42 783.387 1770.29 783.262C1775.35 782.464 1783.46 779.322 1784.93 781.267C1791.35 789.645 1795.89 799.47 1800.93 808.87C1801.27 809.544 1800.48 811.563 1799.68 812.012C1789.38 817.972 1778.97 823.732 1766.92 830.514C1767.47 823.557 1768.29 818.42 1768.12 813.309C1768.02 810.616 1766.2 807.973 1765.15 805.329C1762.96 807.025 1759.66 808.272 1758.82 810.466C1755.77 818.321 1753.53 826.474 1750.48 836.174C1742.7 826.774 1736.54 831.162 1730.03 834.952C1721.2 840.114 1712.16 844.951 1703.06 849.614C1697.15 852.656 1690.96 854.501 1684.7 849.963C1678.81 845.699 1680.91 840.089 1680.76 834.154C1680.26 815.927 1678.49 797.699 1676.64 779.547C1675.62 769.423 1674.12 759.274 1671.65 749.425C1669.63 741.421 1673.2 738.154 1679.71 735.885C1681.73 735.187 1683.68 734.314 1687.09 732.943H1687.07Z" fill="#C3E9F2"></path><path d="M1139.86 1190.1C1156.25 1188.68 1171.66 1187.34 1188.6 1185.86C1190.7 1199.53 1193.02 1212.47 1194.59 1225.54C1196.26 1239.4 1193.92 1254.79 1199.31 1266.85C1205.87 1281.59 1200.83 1291.66 1195.54 1303.88C1192.47 1310.99 1192.94 1319.59 1191.95 1326.7C1186.38 1328.34 1180.7 1330.04 1173.89 1332.03C1173.26 1330.84 1171.49 1328.67 1171.04 1326.25C1169.52 1318.15 1164.48 1313.26 1157.54 1309.62C1151.56 1306.48 1148.02 1302.91 1150.71 1294.76C1151.76 1291.56 1147.64 1285.65 1144.47 1282.31C1136.91 1274.33 1128.03 1267.58 1120.62 1259.47C1116.88 1255.38 1116.43 1249.7 1123.17 1246.46C1131.33 1242.54 1128.71 1235.11 1129.33 1228.5C1129.63 1225.14 1131.2 1220.8 1133.7 1218.93C1146.39 1209.53 1147.59 1205.49 1139.83 1190.05L1139.86 1190.1Z" fill="#C3E9F2"></path><path d="M1174.96 1566.92C1175.43 1572.28 1175.66 1575 1176.01 1578.94C1160.96 1578.64 1147.99 1573.93 1136.96 1564.65C1131.92 1560.41 1128.36 1558.62 1122.62 1563.48C1120.25 1565.5 1115.66 1565.88 1112.24 1565.5C1102.76 1564.45 1093.36 1562.61 1082.06 1560.76C1082.9 1553.08 1084.57 1544.66 1084.57 1536.23C1084.57 1528.37 1083.48 1520.37 1081.56 1512.74C1078.41 1500.35 1074.22 1488.2 1069.96 1474.29C1091.81 1472.29 1111.22 1470.32 1130.68 1468.88C1136.91 1468.4 1141.55 1475.93 1140.23 1484.44C1139.48 1489.27 1137.44 1493.89 1135.97 1498.6C1134.97 1501.84 1133.42 1505.01 1133.07 1508.3C1131.55 1522.59 1133.99 1525.18 1148.16 1525.08C1155.65 1525.03 1163.13 1525.11 1170.59 1524.83C1179.22 1524.51 1182.39 1528.7 1181.49 1537.32C1177.43 1537.85 1173.39 1537.95 1169.59 1539.02C1167.75 1539.54 1164.83 1542.54 1165.13 1543.21C1166.1 1545.43 1168.1 1547.42 1170.17 1548.84C1171.14 1549.52 1173.14 1548.6 1174.68 1548.52C1179.32 1548.32 1185.44 1546.2 1188.33 1548.37C1196.14 1554.23 1201.93 1568.05 1201.23 1576.97C1192.52 1573.63 1184.49 1570.56 1174.98 1566.92H1174.96Z" fill="#C3E9F2"></path><path d="M765.979 286.455C752.682 294.16 739.385 300.444 727.885 309.046C720.026 314.931 713.79 323.558 708.326 331.937C699.495 345.476 686.323 350.139 671.605 351.86C669.21 352.134 665.468 348.493 663.771 345.8C658.433 337.198 653.518 328.321 649.003 319.27C647.73 316.726 647.007 312.512 648.254 310.343C660.453 289.198 672.902 268.202 685.924 247.531C687.571 244.913 694.032 242.32 696.152 243.517C718.505 255.934 740.433 269.1 762.411 282.166C763.883 283.039 764.756 284.934 765.979 286.455Z" fill="#C3E9F2"></path><path d="M1199.41 1403.75C1202.85 1446.61 1206.27 1488.83 1209.71 1531.56C1200.48 1532.66 1192.5 1534.86 1188.28 1523.74C1187.13 1520.72 1181.64 1518.05 1177.85 1517.55C1166.5 1516.08 1155 1515.78 1141.1 1514.88C1143.1 1508.23 1145.45 1502.42 1146.52 1496.41C1147.67 1490.02 1147.92 1483.44 1147.97 1476.96C1147.99 1472.72 1146.79 1468.48 1146.44 1464.22C1146.14 1460.52 1147.42 1456.29 1146.02 1453.17C1139.21 1437.83 1147.42 1425.69 1154.03 1413.37C1155.57 1410.48 1159.91 1407.89 1163.28 1407.39C1174.86 1405.67 1186.61 1404.97 1199.43 1403.75H1199.41Z" fill="#C3E9F2"></path><path d="M1464.47 1043.51C1465.66 1050.92 1467.26 1057.72 1467.73 1064.61C1468.18 1070.89 1469.66 1075.63 1475.52 1079.27C1478.74 1081.26 1481.75 1085.58 1482.4 1089.29C1485.5 1106.94 1487.74 1124.77 1490.24 1142.53C1490.41 1143.72 1490.24 1144.95 1490.24 1147.79C1485.9 1146.19 1482.1 1145.32 1478.86 1143.52C1470.53 1138.91 1462.62 1133.43 1454.09 1129.24C1451.32 1127.87 1446.93 1128.76 1443.59 1129.69C1420.66 1136.09 1397.81 1142.83 1374.91 1149.31C1371.71 1150.21 1368.3 1150.41 1362.86 1151.25C1368.74 1139.86 1387.53 1134.2 1372.71 1117.37C1383.29 1115.17 1392.12 1113.4 1400.95 1111.51C1413.6 1108.82 1416.92 1104.55 1417.42 1091.91C1417.67 1085.75 1418.19 1079.47 1419.56 1073.48C1422.46 1060.79 1429.57 1051.66 1442.96 1048.6C1449.55 1047.08 1456.11 1045.48 1464.44 1043.49L1464.47 1043.51Z" fill="#C3E9F2"></path><path d="M1219.66 1187.73C1218.29 1175.44 1216.52 1164.02 1215.87 1152.58C1215.17 1140.06 1214.8 1127.44 1215.77 1115C1216.07 1111.01 1221.46 1107.59 1223.8 1103.5C1226.9 1098.07 1230.29 1092.48 1231.74 1086.52C1233.41 1079.64 1236.78 1077.6 1243.46 1077.7C1263.87 1078.07 1275.34 1093.5 1269.16 1112.93C1268.03 1116.42 1266.44 1119.74 1264.82 1123.7C1275.74 1130.28 1276.52 1113.88 1285.32 1116.22C1294.95 1126.97 1297.3 1145.25 1290.66 1159.66C1288.89 1163.52 1287.29 1167.81 1287.12 1171.95C1286.82 1178.56 1283.63 1181.08 1277.59 1181.68C1257.58 1183.67 1237.6 1185.81 1219.66 1187.68V1187.73Z" fill="#C3E9F2"></path><path d="M1345.47 1329.42C1327.63 1345.47 1311.07 1360.83 1293.93 1375.52C1289.16 1379.59 1282.93 1383.4 1276.92 1384.25C1238.67 1389.76 1200.28 1394.4 1161.89 1399.33C1159.47 1389.19 1162.81 1382.58 1168.35 1376.02C1172.34 1371.28 1174.71 1365.17 1178.43 1358.56C1232.98 1349.04 1289.21 1339.24 1345.47 1329.42Z" fill="#C3E9F2"></path><path d="M1323.19 1270.54C1318.9 1267.28 1316.66 1266.11 1315.11 1264.29C1311.84 1260.47 1309.3 1260.77 1304.88 1263.36C1292.13 1270.82 1271.6 1259.47 1269.43 1244.74C1266.91 1227.66 1263.84 1210.65 1260.63 1191.38C1271.58 1190.85 1282.45 1189.58 1293.26 1190.03C1304.18 1190.48 1314.21 1189.38 1323.07 1182.42C1328.91 1177.84 1334.94 1173.47 1341.95 1168.24C1346.44 1188.18 1351.01 1207.23 1349.86 1227.11C1349.74 1229.35 1348.41 1232.34 1346.67 1233.52C1334.07 1241.94 1324.49 1252.34 1323.22 1270.54H1323.19Z" fill="#C3E9F2"></path><path d="M1272.85 1266.6C1280.11 1270.15 1285.92 1274.71 1292.21 1275.58C1298.37 1276.43 1305.03 1273.51 1311.04 1272.31C1316.86 1281.44 1323.29 1291.51 1329.95 1301.99C1323.59 1309.17 1317.03 1317.47 1309.42 1324.68C1306.18 1327.75 1300.84 1329.34 1296.2 1330.14C1269.98 1334.58 1243.64 1338.34 1217.44 1342.88C1208.36 1344.45 1201.58 1343.18 1199.03 1336.47C1200.38 1329.54 1200.73 1324.8 1202.32 1320.54C1203.35 1317.82 1205.97 1314.26 1208.39 1313.78C1217.74 1311.96 1227.4 1311.74 1236.73 1309.79C1239.89 1309.12 1241.96 1304.01 1245.21 1302.84C1252.57 1300.17 1256.11 1295.58 1256.68 1287.9C1256.78 1286.4 1259.3 1284.08 1260.92 1283.86C1270.6 1282.59 1275.72 1278.07 1272.8 1266.63L1272.85 1266.6Z" fill="#C3E9F2"></path><path d="M1202.1 1201.17C1218.69 1198.28 1234.71 1195.51 1252.24 1192.47C1256.58 1220.65 1260.75 1247.83 1265.22 1276.73C1251.52 1273.51 1246.51 1278.85 1246.73 1290.19C1246.76 1291.54 1245.36 1294.08 1244.71 1294.06C1237.9 1293.76 1234.03 1299.34 1228.84 1301.46C1221.58 1304.43 1212.73 1303.48 1203.37 1304.31C1205.34 1300.32 1206.47 1297.5 1208.06 1294.96C1213.45 1286.43 1215.47 1278.02 1208.44 1269.27C1207.16 1267.68 1206.49 1265.26 1206.34 1263.16C1204.87 1243.09 1203.55 1223.02 1202.08 1201.17H1202.1Z" fill="#C3E9F2"></path><path d="M1564.33 1025.48C1556.25 1039.52 1549.16 1051.89 1541.1 1065.88C1538.18 1062.01 1535.02 1059.07 1533.42 1055.45C1528.78 1044.98 1524.54 1034.28 1520.6 1023.54C1518.15 1016.83 1515.51 1010.6 1521.64 1003.14C1524.79 999.325 1523.04 991.345 1523.22 985.236C1523.49 975.362 1522.79 965.413 1523.79 955.613C1525.04 943.42 1535.84 945.041 1543.97 943.619C1551.88 942.223 1553.28 948.631 1555.82 954.067C1561.19 965.513 1566.6 976.983 1573.14 987.755C1575.43 991.52 1581.02 993.365 1585.26 995.809C1591 999.125 1591.3 1004.54 1587.78 1008.3C1580.74 1015.78 1574.31 1024.78 1564.3 1025.48H1564.33Z" fill="#C3E9F2"></path><path d="M405.371 726.66C400.531 726.211 396.764 726.311 393.197 725.413C378.229 721.698 375.41 716.811 373.239 698.683C368.774 661.205 363.435 623.828 358.745 586.375C358.221 582.086 357.872 575.279 360.217 573.658C365.581 569.968 373.239 567.175 379.052 572.785C384.366 577.922 390.702 584.056 392.249 590.764C402.502 634.998 405.446 680.031 405.371 726.66Z" fill="#C3E9F2"></path><path d="M800.255 248.829C792.996 243.243 785.711 237.633 777.429 231.274C775.957 233.244 774.41 236.211 772.041 238.231C770.12 239.877 766.951 241.523 764.806 241.049C762.685 240.575 760.141 237.732 759.517 235.463C755.9 222.248 766.078 207.312 779.575 206.215C781.845 206.04 785.961 208.459 786.435 210.354C787.932 216.488 789.903 216.962 794.368 212.872C802.725 205.242 804.821 205.791 808.862 216.089C810.683 220.677 812.554 225.215 814.525 229.728C817.519 236.536 823.78 237.832 829.244 235.289C831.913 234.042 832.911 228.008 833.585 223.968C834.059 221.076 832.387 217.909 832.362 214.867C832.362 212.723 833.485 210.553 834.083 208.409C836.803 209.232 841.468 209.456 841.967 211.002C845.01 220.552 851.846 226.262 859.579 231.723C861.725 233.244 863.072 237.483 862.922 240.351C862.673 244.864 861.375 249.527 859.479 253.666C858.082 256.683 855.413 260.349 852.619 261.097C850.374 261.695 845.784 258.977 844.511 256.558C840.47 248.779 835.406 250.574 829.967 253.965C823.381 258.055 817.219 262.867 810.459 266.657C803.274 270.697 795.216 273.863 788.256 266.882C785.412 264.014 784.763 258.952 783.117 254.888C786.51 253.641 789.828 252.17 793.295 251.197C795.017 250.724 796.962 251.123 798.809 251.123C799.283 250.375 799.732 249.651 800.206 248.903L800.255 248.829Z" fill="#C3E9F2"></path><path d="M1001.4 262.269C998.284 262.269 995.166 262.369 992.072 262.269C979.025 261.77 976.605 259.351 973.761 246.261C971.616 236.336 968.373 226.662 966.252 216.737C965.579 213.596 966.951 210.03 967.4 206.664C971.491 207.237 976.131 206.838 979.524 208.683C983.141 210.678 985.96 214.518 988.455 218.059C997.486 230.826 1009.49 231.624 1023.11 227.584C1032.24 224.866 1041.57 222.797 1050.72 220.129C1060.7 217.236 1068.46 221.4 1074.77 228.208C1082.03 236.087 1080.41 241.972 1070.36 245.388C1047.88 253.018 1025.88 262.668 1001.43 262.269H1001.4Z" fill="#C3E9F2"></path><path d="M1619.19 998.527C1621.21 985.212 1625.42 969.029 1640.67 962.172C1661.67 952.721 1670.88 935.965 1677.21 915.967C1677.96 913.623 1678.49 911.154 1679.56 908.96C1682.43 903.125 1683.67 895.046 1693.85 900.058C1703.83 904.945 1708.65 913.124 1703.61 921.303C1695.03 935.242 1685.25 948.457 1676.02 961.997C1666.44 976.036 1657.16 990.298 1647.25 1004.09C1643.98 1008.65 1639.84 1014.04 1634.98 1015.71C1625.37 1018.97 1619.16 1012.47 1619.14 998.552L1619.19 998.527Z" fill="#C3E9F2"></path><path d="M999.207 124.302C995.315 138.341 992.995 148.813 989.178 158.713C988.355 160.857 981.32 162.677 978.326 161.53C956.872 153.476 942.877 137.094 936.116 116.123C933.671 108.543 938.561 98.2449 941.205 89.5425C942.727 84.4807 946.444 80.0921 949.163 75.3794C953.729 78.8952 959.217 81.688 962.66 86.0766C969.894 95.3275 976.405 104.304 988.13 109.416C993.918 111.934 996.887 120.961 999.232 124.302H999.207Z" fill="#C3E9F2"></path><path d="M1105.95 519.2C1117.8 524.735 1128.16 528.8 1137.71 534.236C1151.66 542.165 1165.25 550.817 1178.52 559.819C1180.82 561.39 1182.74 567.624 1181.52 569.294C1179.52 572.037 1174.86 572.935 1171.22 574.256C1170.32 574.581 1168.97 573.359 1167.77 573.084C1147.19 568.247 1146.32 568.571 1138.19 588.295C1135.72 594.304 1133.32 596.474 1126.54 593.182C1098.05 579.343 1102.91 585.078 1103.41 553.66C1103.58 542.963 1104.96 532.291 1105.95 519.225V519.2Z" fill="#C3E9F2"></path><path d="M946.02 353.107C945.197 359.565 944.748 366.073 943.451 372.432C942.179 378.64 937.239 380.236 931.476 380.112C926.188 380.012 920.974 378.94 920.45 372.781C919.203 358.144 910.097 349.417 898.796 342.185C893.333 338.669 890.064 334.381 891.636 327.598C893.083 321.34 896.9 318.746 903.461 318.123C909.822 317.5 909.897 312.288 906.455 308.598C899.919 301.591 902.763 296.853 909.373 293.088C918.379 287.976 929.73 290.046 930.553 297.551C932.474 314.707 937.189 330.665 945.472 345.726C946.519 347.646 945.621 350.613 945.621 353.082H946.045L946.02 353.107Z" fill="#C3E9F2"></path><path d="M1126.01 1068.07C1141.48 1056.03 1154.93 1045.55 1168.35 1035.11C1169.17 1035.78 1169.97 1036.48 1170.79 1037.15C1169.15 1042.16 1167.5 1047.18 1166.03 1051.66C1172.31 1054.06 1177.85 1057.5 1183.69 1058.02C1191.05 1058.7 1199.51 1058.87 1205.92 1055.85C1216.89 1050.69 1226.47 1048.85 1237.6 1055.08C1244.11 1058.75 1251.82 1060.29 1259 1062.78L1258.73 1065.08C1245.33 1067.62 1231.86 1069.89 1218.54 1072.78C1205.12 1075.68 1192.5 1080.29 1184.76 1094.93C1183.64 1073.03 1166.85 1077 1154.48 1074.11C1145.57 1072.01 1136.56 1070.29 1126.04 1068.05L1126.01 1068.07Z" fill="#C3E9F2"></path><path d="M472.079 946.113C463.522 942.597 457.934 939.979 452.147 937.959C439.723 933.596 433.262 924.968 429.021 912.426C425.129 900.931 418.044 890.358 411.458 879.96C407.367 873.502 408.514 868.814 413.753 864.6C419.666 859.863 423.383 864.152 426.776 868.54C431.89 875.173 436.904 881.88 441.968 888.563C444.787 892.253 446.883 897.515 450.625 899.26C470.508 908.636 466.142 928.035 472.079 946.113Z" fill="#C3E9F2"></path><path d="M784.863 188.086C784.09 188.909 782.269 191.452 779.874 193.148C769.371 200.629 758.569 207.71 748.116 215.241C742.079 219.579 731.028 217.111 725.24 209.63C720.625 203.646 722.197 197.836 730.13 193.023C741.48 186.116 752.756 178.96 764.482 172.751C775.907 166.692 785.163 172.826 784.863 188.111V188.086Z" fill="#C3E9F2"></path><path d="M912.242 241.049C906.454 242.146 901.615 242.619 897.074 244.041C887.869 246.958 886.547 239.727 884.551 234.291C882.605 229.03 885.125 226.212 890.937 224.442C901.515 221.225 911.668 216.587 922.046 212.523C931.8 222.671 934.545 247.058 926.761 259.6C925.464 261.67 920.749 264.064 919.626 263.316C916.383 261.146 913.115 257.83 911.868 254.239C910.67 250.798 911.968 246.46 912.242 241.049Z" fill="#C3E9F2"></path><path d="M870.93 148.988C871.254 139.014 876.368 133.927 882.929 137.144C894.055 142.63 904.558 149.686 914.387 157.316C919.202 161.057 916.183 173.026 910.196 178.86C904.583 184.296 899.569 180.132 895.378 176.915C889.016 172.003 882.929 166.567 877.59 160.608C874.248 156.868 872.451 151.731 870.955 148.988H870.93Z" fill="#C3E9F2"></path><path d="M1570.04 1108.44C1570.79 1117.99 1568.32 1120.21 1551.71 1124.57C1550.73 1123.03 1549.44 1121.41 1548.59 1119.59C1542.65 1106.77 1538.83 1105.02 1524.79 1108.96C1515.01 1111.71 1505.23 1114.45 1494.7 1117.39V1104.45C1509.97 1098.94 1525.76 1093.18 1541.63 1087.62C1542.72 1087.25 1544.62 1088.07 1545.64 1088.92C1546.77 1089.86 1547.34 1091.46 1548.09 1092.83C1553.03 1102.09 1560.35 1107.29 1570.04 1108.44Z" fill="#C3E9F2"></path><path d="M1510.17 1089.66C1508.9 1083.63 1507.95 1079.14 1506.95 1074.65C1506.83 1074.06 1506.35 1073.48 1506.35 1072.91C1506.33 1055.55 1506.33 1038.2 1508.47 1020.2C1512.91 1030.05 1517.38 1039.87 1521.74 1049.77C1525.56 1058.45 1527.31 1068.37 1536.94 1073.48C1537.51 1073.78 1536.51 1080.04 1535.02 1080.69C1527.13 1084.13 1518.88 1086.65 1510.17 1089.66Z" fill="#C3E9F2"></path><path d="M1203.22 441.826C1194.34 441.826 1187.56 430.855 1188.06 416.243C1188.35 407.491 1195.19 406.019 1201.93 406.443C1217.74 407.391 1224.28 414.847 1226.42 429.982C1227.47 437.313 1223.03 440.38 1203.2 441.851L1203.22 441.826Z" fill="#C3E9F2"></path><path d="M943.775 462.922C940.482 461.301 932.025 459.032 932.075 456.837C932.2 448.285 933.173 438.809 937.189 431.503C942.553 421.779 952.556 422.726 958.718 432.201C962.585 438.136 965.903 444.445 969.171 450.753C971.491 455.217 970.493 458.333 964.855 459.156C958.469 460.079 952.132 461.4 943.8 462.922H943.775Z" fill="#C3E9F2"></path><path d="M1492.16 1094.5C1491.56 1090.69 1491.63 1087.15 1490.36 1084.15C1488.79 1080.39 1486.22 1077 1483.93 1073.56C1481.78 1070.34 1478.44 1067.55 1477.34 1064.03C1475.04 1056.5 1473.85 1048.62 1472.05 1040.04C1479.63 1037.65 1487.07 1035.31 1494.88 1032.84C1497.5 1039.82 1503.73 1045.73 1495.92 1053.81C1493.8 1056 1495.87 1062.64 1496.7 1067.1C1497.62 1072.21 1498.99 1077.3 1500.66 1082.23C1503.08 1089.27 1501.44 1093.53 1492.16 1094.5Z" fill="#C3E9F2"></path><path d="M149.79 531.517C142.88 531.792 135.87 531.492 134.323 523.139C132.851 515.309 138.664 510.971 145.025 508.926C151.86 506.732 159.295 504.812 166.33 505.161C174.412 505.56 177.656 512.267 176.882 519.922C176.184 526.879 171.419 529.672 164.583 529.872C159.644 530.021 154.704 530.944 149.79 531.517Z" fill="#C3E9F2"></path><path d="M365.78 771.842C365.406 767.229 365.057 761.942 364.583 756.681C363.959 749.948 366.379 744.513 373.214 743.44C380.898 742.244 381.397 749.076 381.696 754.088C382.42 765.583 382.569 777.128 382.445 788.648C382.395 794.034 380.923 800.068 374.013 799.694C367.876 799.345 365.331 794.707 365.705 788.398C366.03 783.112 365.78 777.801 365.78 771.842Z" fill="#C3E9F2"></path><path d="M1593.79 858.99C1585.08 858.99 1576.38 859.164 1567.7 858.84C1565.65 858.765 1563.68 856.895 1561.68 855.848C1562.98 853.928 1563.88 850.786 1565.6 850.263C1582.59 845.101 1599.85 841.037 1617.44 846.847C1620.33 847.794 1622.18 851.958 1624.5 854.626C1621.41 856.072 1618.41 858.516 1615.22 858.79C1608.11 859.414 1600.93 858.99 1593.77 858.965L1593.79 858.99Z" fill="#C3E9F2"></path><path d="M838.424 169.634C834.632 174.97 832.462 181.578 828.346 183.149C820.188 186.266 803.948 177.613 802.326 171.18C802.102 170.307 801.902 169.31 802.077 168.462C803.374 162.278 824.18 150.609 829.144 154.324C833.161 157.316 834.832 163.4 838.424 169.634Z" fill="#C3E9F2"></path><path d="M1499.77 1144.35C1498.89 1138.49 1497.99 1132.45 1497.1 1126.39C1508.85 1122.68 1519.9 1119.26 1530.87 1115.67C1536.69 1113.78 1539.06 1117.52 1540.35 1121.76C1541.68 1126.02 1541.65 1130.06 1535.76 1131.9C1524.06 1135.6 1512.56 1139.88 1499.77 1144.35Z" fill="#C3E9F2"></path><path d="M926.986 186.79C927.26 183.449 927.135 180.032 927.884 176.791C931.252 162.179 931.302 162.353 946.07 166.218C951.134 167.54 956.423 168.388 961.637 168.587C967.15 168.812 969.445 171.754 968.023 176.242C967.075 179.16 963.708 181.553 960.963 183.523C959.741 184.396 957.197 184.072 955.5 183.523C945.921 180.481 936.765 180.107 927.011 186.765L926.986 186.79Z" fill="#C3E9F2"></path><path d="M407.442 743.69C416.173 743.441 422.909 748.578 423.283 755.809C423.682 763.638 418.244 770.471 411.284 770.845C402.951 771.318 395.842 764.062 395.742 754.936C395.667 747.879 399.808 743.89 407.442 743.665V743.69Z" fill="#C3E9F2"></path><path d="M942.104 247.357C943.426 242.046 940.532 232.072 950.586 230.875C960.34 229.728 959.242 240.151 962.211 245.986C962.61 246.759 962.61 247.781 962.635 248.704C962.76 254.588 968.448 262.817 956.323 263.615C947.367 264.188 942.054 258.777 942.079 247.357H942.104Z" fill="#C3E9F2"></path><path d="M1172.04 625.099C1164.75 625.249 1154.18 617.569 1156.52 614.203C1159.86 609.415 1165.53 605.326 1171.04 603.231C1176.3 601.236 1183.69 607.894 1183.07 612.956C1182.22 619.589 1179.12 624.7 1172.04 625.099Z" fill="#C3E9F2"></path><path d="M20.191 465.913C27.3008 465.813 31.3173 468.232 30.8183 475.164C30.4441 480.35 29.6458 485.562 22.6108 484.988C16.7233 484.515 11.1103 482.47 11.3099 475.413C11.4845 469.952 13.605 464.741 20.166 465.888L20.191 465.913Z" fill="#C3E9F2"></path><path d="M136.468 232.396C133.749 228.656 129.458 225.19 128.735 221.101C127.862 216.113 130.78 211.575 137.466 211.725C144.352 211.875 148.543 215.789 148.069 221.923C147.794 225.564 143.429 228.905 140.884 232.371L136.468 232.421V232.396Z" fill="#C3E9F2"></path><path d="M1626.37 925.093C1630.64 914.321 1655.56 909.434 1662.97 916.914C1652.34 926.489 1639.47 922.799 1626.37 925.093Z" fill="#C3E9F2"></path><path d="M94.2835 266.433C91.7139 263.091 87.8472 260.074 86.8742 256.334C85.5521 251.122 88.0467 246.061 94.4581 246.185C100.595 246.31 105.809 249.651 105.061 256.384C104.661 259.9 100.745 263.041 98.4247 266.333C97.0526 266.358 95.6556 266.408 94.2835 266.433Z" fill="#C3E9F2"></path><path d="M1540.21 1140.16C1532.05 1152.7 1518.75 1154.7 1508.12 1161.85C1508.35 1151.15 1523.09 1141.18 1540.21 1140.16Z" fill="#C3E9F2"></path><path d="M946.893 197.013C950.76 201.452 954.402 203.721 954.452 206.09C954.552 210.279 952.656 214.169 946.619 213.919C941.804 213.72 937.962 212.348 938.736 207.511C939.26 204.394 943.002 201.776 946.893 197.013Z" fill="#C3E9F2"></path><path d="M915.635 116.173C911.369 119.141 908.5 122.507 906.953 121.958C904.184 120.986 902.214 117.694 899.918 115.375C902.388 113.181 904.583 109.99 907.452 109.167C908.924 108.743 911.594 112.558 915.635 116.148V116.173Z" fill="#C3E9F2"></path><path d="M1674.37 895.121C1670 897.615 1667.13 900.582 1665.06 900.133C1662.37 899.535 1660.32 896.168 1657.98 893.999C1660.62 891.805 1663.04 888.464 1665.99 887.89C1667.76 887.541 1670.4 891.53 1674.37 895.146V895.121Z" fill="#C3E9F2"></path></svg>