<svg width="43" height="41" viewBox="0 0 43 41" fill="none" xmlns="http://www.w3.org/2000/svg" class="glo-h-[32px] glo-w-[34.13px] md:glo-h-[40px] md:glo-w-[41px]"><g clip-path="url(#clip0_1_2)"><mask id="mask0_1_2" style="mask-type:alpha;" maskUnits="userSpaceOnUse" x="1" y="0" width="22" height="41"><path d="M22.0942 0.399902H1.09424V41H22.0942V0.399902Z" fill="#C4C4C4"></path></mask><g mask="url(#mask0_1_2)"><path fill-rule="evenodd" clip-rule="evenodd" d="M21.6365 0.399902C22.0359 1.10302 22.2853 1.49335 22.4886 1.9073C24.1893 5.37351 25.9011 8.83447 27.5619 12.3202C27.9724 13.1815 28.4574 13.6108 29.4687 13.7355C33.2462 14.2015 37.0087 14.7968 40.7705 15.3847C41.2261 15.4558 41.6438 15.7769 42.0787 15.9823C41.8373 16.365 41.6571 16.8117 41.3445 17.1202C38.6925 19.7363 36.0124 22.3238 33.3491 24.9284C32.5952 25.6657 32.183 26.4203 32.4258 27.6407C33.18 31.4271 33.7656 35.2485 34.3845 39.0619C34.454 39.4904 34.3193 39.953 34.2795 40.3999C33.8457 40.2971 33.3688 40.2789 32.9848 40.0778C29.5251 38.265 26.0682 36.4451 22.6433 34.5659C21.8576 34.1351 21.2499 34.1666 20.4845 34.5865C17.0941 36.4467 13.6788 38.261 10.2579 40.064C9.87345 40.2665 9.39799 40.2916 8.96488 40.3992C8.92182 39.9227 8.77909 39.43 8.85186 38.9727C9.47684 35.0407 10.1222 31.1119 10.8099 27.191C10.9425 26.4346 10.7495 25.9331 10.2228 25.4185C7.36066 22.6229 4.51865 19.8059 1.68951 16.976C1.4099 16.6962 1.26342 16.2791 1.05518 15.9258C1.42885 15.7511 1.78756 15.4772 2.17808 15.4173C6.09643 14.818 10.0159 14.2239 13.9448 13.7036C14.7577 13.596 15.1786 13.2481 15.5179 12.5419C17.2237 8.98931 18.9606 5.45248 20.7003 1.91685C20.9158 1.47904 21.212 1.08203 21.6365 0.399902Z" fill="#E0A61B"></path><path d="M21.6365 0.399902C22.0359 1.10302 22.2853 1.49335 22.4886 1.9073C24.1893 5.37351 25.9011 8.83447 27.5619 12.3202C27.9724 13.1815 28.4574 13.6108 29.4687 13.7355C33.2462 14.2015 37.0087 14.7968 40.7705 15.3847C41.2261 15.4558 41.6438 15.7769 42.0787 15.9823C41.8373 16.365 41.6571 16.8117 41.3445 17.1202C38.6925 19.7363 36.0124 22.3238 33.3491 24.9284C32.5952 25.6657 32.183 26.4203 32.4258 27.6407C33.18 31.4271 33.7656 35.2485 34.3845 39.0619C34.454 39.4904 34.3193 39.953 34.2795 40.3999C33.8457 40.2971 33.3688 40.2789 32.9848 40.0778C29.5251 38.265 26.0682 36.4451 22.6433 34.5659C21.8576 34.1351 21.2499 34.1666 20.4845 34.5865C17.0941 36.4467 13.6788 38.261 10.2579 40.064C9.87345 40.2665 9.39799 40.2916 8.96488 40.3992C8.92182 39.9227 8.77909 39.43 8.85186 38.9727C9.47684 35.0407 10.1222 31.1119 10.8099 27.191C10.9425 26.4346 10.7495 25.9331 10.2228 25.4185C7.36066 22.6229 4.51865 19.8059 1.68951 16.976C1.4099 16.6962 1.26342 16.2791 1.05518 15.9258C1.42885 15.7511 1.78756 15.4772 2.17808 15.4173C6.09643 14.818 10.0159 14.2239 13.9448 13.7036C14.7577 13.596 15.1786 13.2481 15.5179 12.5419C17.2237 8.98931 18.9606 5.45248 20.7003 1.91685C20.9158 1.47904 21.212 1.08203 21.6365 0.399902Z" stroke="#E0A61B"></path></g><path d="M21.6755 0.399902C22.0749 1.10302 22.3244 1.49335 22.5277 1.9073C24.2283 5.37351 25.9402 8.83447 27.601 12.3202C28.0114 13.1815 28.4965 13.6108 29.5078 13.7355C33.2853 14.2015 37.0478 14.7968 40.8096 15.3847C41.2652 15.4558 41.6828 15.7769 42.1178 15.9823C41.8763 16.365 41.6962 16.8117 41.3835 17.1202C38.7315 19.7363 36.0515 22.3238 33.3882 24.9284C32.6343 25.6657 32.222 26.4203 32.4649 27.6407C33.219 31.4271 33.8047 35.2485 34.4236 39.0619C34.4931 39.4904 34.3583 39.953 34.3185 40.3999C33.8847 40.2971 33.4079 40.2789 33.0239 40.0778C29.5642 38.265 26.1072 36.4451 22.6824 34.5659C21.8966 34.1351 21.289 34.1666 20.5236 34.5865C17.1331 36.4467 13.7178 38.261 10.297 40.064C9.91251 40.2665 9.43705 40.2916 9.00394 40.3992C8.96089 39.9227 8.81815 39.43 8.89092 38.9727C9.5159 35.0407 10.1612 31.1119 10.8489 27.191C10.9816 26.4346 10.7886 25.9331 10.2619 25.4185C7.39972 22.6229 4.55772 19.8059 1.72858 16.976C1.44896 16.6962 1.30249 16.2791 1.09424 15.9258C1.46792 15.7511 1.82662 15.4772 2.21714 15.4173C6.13549 14.818 10.055 14.2239 13.9839 13.7036C14.7968 13.596 15.2177 13.2481 15.557 12.5419C17.2628 8.98931 18.9996 5.45248 20.7393 1.91685C20.9548 1.47904 21.2511 1.08203 21.6755 0.399902Z" stroke="#E0A61B"></path></g><defs><clipPath id="clip0_1_2"><rect width="43" height="41" fill="white"></rect></clipPath></defs></svg>