<svg width="43" height="41" viewBox="0 0 43 41" fill="none" xmlns="http://www.w3.org/2000/svg" class="glo-h-[32px] glo-w-[34.13px] md:glo-h-[40px] md:glo-w-[41px]"><path fill-rule="evenodd" clip-rule="evenodd" d="M7.64767 37.9752C8.22518 34.6458 8.67998 31.2893 9.4247 27.9968C9.88699 25.9528 9.61931 24.4961 7.90997 23.0604C5.3634 20.9212 3.06249 18.4956 0.681724 16.1673C0.378449 15.8707 0.22365 15.4262 0 15.0502C0.416154 14.877 0.818022 14.6099 1.25104 14.5453C5.09455 13.9724 8.93923 13.4006 12.7947 12.914C13.6516 12.8058 14.1122 12.47 14.4698 11.7405C16.1497 8.31299 17.8539 4.89688 19.5822 1.49285C19.7925 1.07853 20.2004 0.761974 20.5168 0.399902C20.8297 0.755936 21.2344 1.06691 21.4414 1.47497C23.1517 4.84486 24.8418 8.22497 26.498 11.6209C26.8898 12.4244 27.3753 12.8093 28.3329 12.9266C32.1513 13.3938 35.9557 13.9735 39.7606 14.5425C40.1967 14.6076 40.6034 14.8656 41.0236 15.034C40.7789 15.4381 40.6063 15.9146 40.2777 16.2354C37.5627 18.8869 34.8401 21.5317 32.0682 24.125C31.3905 24.7595 31.1684 25.4063 31.3237 26.2724C31.9947 30.0143 32.6635 33.7565 33.293 37.5052C33.3679 37.9518 33.1977 38.439 33.1408 38.9075C32.708 38.7893 32.238 38.7414 31.8476 38.5422C28.387 36.775 24.9311 34.9974 21.4967 33.1807C20.8028 32.8138 20.2506 32.8001 19.5494 33.1712C16.0127 35.0436 12.4535 36.8751 8.89192 38.7022C7.89451 39.214 7.57835 39.0087 7.64767 37.9752Z" fill="#E0A61B"></path></svg>