<svg data-v-6d4ee73a="" class="state south-carolina" width="113" height="86" viewBox="0 0 113 86" fill="none" xmlns="http://www.w3.org/2000/svg"><path d="M1.84605 11.3586C13.2468 7.61834 24.5478 3.5789 36.0733 0.337335C38.9422 -0.460588 43.3079 0.187633 45.578 1.95803C52.2139 7.1944 59.4485 8.09205 66.3339 4.60114C76.612 -0.635231 84.7197 2.73106 92.7027 8.8651C99.3386 13.9519 105.875 19.1883 112.211 24.1753C104.128 40.1836 96.6443 55.9925 88.1374 71.2278C85.518 75.9405 80.0795 79.0824 73.5933 85.1167C67.5312 57.7878 41.6614 52.9752 27.8158 35.77C23.3005 30.1347 16.0907 26.6936 10.1284 22.2053C6.73565 19.637 3.39278 17.0188 0 14.4256C0.623672 13.4032 1.22237 12.3809 1.84605 11.3586Z"></path></svg>