<svg width="40" height="41" viewBox="0 0 40 41" fill="none" xmlns="http://www.w3.org/2000/svg">
<rect y="0.399902" width="40" height="40" rx="20" fill="#EA7600"/>
<path d="M12.001 19.1022L20.001 12.3022L28.001 19.1022" stroke="white" stroke-width="2" stroke-miterlimit="10" stroke-linecap="round" stroke-linejoin="round"/>
<path d="M14 20.5991V28.5991H26V20.5991" stroke="white" stroke-width="2" stroke-miterlimit="10" stroke-linecap="round" stroke-linejoin="round"/>
<path d="M16.8013 21.7285C17.2213 21.3084 17.72 20.9751 18.2688 20.7478C18.8177 20.5204 19.4059 20.4034 20 20.4034C20.5941 20.4034 21.1823 20.5204 21.7312 20.7478C22.28 20.9751 22.7787 21.3084 23.1987 21.7285" stroke="white" stroke-width="2" stroke-miterlimit="10" stroke-linecap="round" stroke-linejoin="round"/>
<path d="M21 24.3999C21 24.9522 20.5523 25.3999 20 25.3999C19.4477 25.3999 19 24.9522 19 24.3999C19 23.8476 19.4477 23.3999 20 23.3999C20.5523 23.3999 21 23.8476 21 24.3999Z" fill="white"/>
</svg>
